<?xml version="1.0" encoding="UTF-8"?>
<svg xmlns="http://www.w3.org/2000/svg" id="Layer_1" width="1.7in" height=".4in" version="1.1" viewBox="0 0 123.1 27.8">
  <defs>
    <style>
      .st0 {
        fill: #fff;
      }
    </style>
  </defs>
  <path id="Path_1" class="st0" d="M14.9.4h2.3v12.6h8.3v2h-10.5V.4h0Z"></path>
  <path id="Path_2" class="st0" d="M27.9.4h11.5v2h-9.3v4.3h6.8v2h-6.8v4.2h9.3v2h-11.5s0-14.6,0-14.6Z"></path>
  <path id="Path_3" class="st0" d="M0,.4v14.7h11.5v-2H2.2v-4.2h6.8v-2H2.2V2.5h9.3V.4H0Z"></path>
  <path id="Path_4" class="st0" d="M40.7.4h2.5l5.4,11L54.1.4h2.5l-7.9,15.4L40.7.4Z"></path>
  <path id="Path_5" class="st0" d="M61.9,0l-8.4,15.4h2.5l1.6-3,1.2-2.4,3-5.5,3,5.6,1.2,2.4,1.6,3h2.5L61.9,0Z"></path>
  <path id="Path_6" class="st0" d="M74.4,2.4h-5.2V.4h12.5v2h-5.1v12.6h-2.3V2.4Z"></path>
  <rect id="Rectangle_20" class="st0" x="84.5" y=".4" width="2.3" height="14.7"></rect>
  <path id="Path_7" class="st0" d="M90.3,7.7c0-4.3,3.4-7.7,7.9-7.7s7.9,3.4,7.9,7.7-3.4,7.7-7.9,7.7-7.9-3.4-7.9-7.7M103.8,7.7c0-3.1-2.5-5.5-5.6-5.5s-5.6,2.4-5.6,5.5,2.5,5.5,5.6,5.5,5.6-2.4,5.6-5.5"></path>
  <path id="Path_8" class="st0" d="M109.5.4h2.3l9,11.4V.4h2.3v14.7h-2.3l-9-11.4v11.4h-2.3s0-14.7,0-14.7Z"></path>
  <path id="Path_9" class="st0" d="M56,15.4h11.8l-5.9-5.8-5.9,5.8Z"></path>
  <path id="Path_10" class="st0" d="M37.5,17.9h4.4c2,0,3.4,1.1,3.4,3s-1.4,3-3.4,3h-3.5v3.7h-.9v-9.8h0ZM42,23.1c1.5,0,2.5-.8,2.5-2.3s-1-2.3-2.5-2.3h-3.5v4.4h3.5v.2Z"></path>
  <path id="Path_11" class="st0" d="M48,22.8c0-2.9,2.1-5.1,5.2-5.1s5.2,2.3,5.2,5.1-2.1,5-5.2,5-5.2-2.3-5.2-5M57.5,22.8c0-2.4-1.8-4.2-4.3-4.2s-4.3,1.9-4.3,4.2,1.8,4.2,4.3,4.2,4.3-1.9,4.3-4.2"></path>
  <rect id="Rectangle_21" class="st0" x="61.6" y="17.9" width=".9" height="9.8"></rect>
  <path id="Path_12" class="st0" d="M66.3,17.9h.9l7,8.5v-8.5h.9v9.8h-.9l-7-8.5v8.5h-.9v-9.8Z"></path>
  <path id="Path_13" class="st0" d="M81.4,18.7h-3.7v-.8h8.3v.8h-3.7v8.9h-.9v-8.9h0,0Z"></path>
</svg>
