<?xml version="1.0" encoding="UTF-8"?>
<svg xmlns="http://www.w3.org/2000/svg" fill="none" viewBox="0 0 129 128" width="128" height="128">
  <rect width="128" height="128" x=".5" fill="#F2F3F5" rx="6"></rect>
  <path fill="#004399" d="M39.5 78a3 3 0 0 1 3-3h8a3 3 0 0 1 3 3v9a3 3 0 0 1-3 3h-8a3 3 0 0 1-3-3v-9Z"></path>
  <path fill="#4D9AFF" d="M39.5 41a3 3 0 0 1 3-3h8a3 3 0 0 1 3 3v27a3 3 0 0 1-3 3h-8a3 3 0 0 1-3-3V41ZM57.5 41a3 3 0 0 1 3-3h8a3 3 0 0 1 3 3v16a3 3 0 0 1-3 3h-8a3 3 0 0 1-3-3V41ZM75.5 41a3 3 0 0 1 3-3h8a3 3 0 0 1 3 3v6a3 3 0 0 1-3 3h-8a3 3 0 0 1-3-3v-6Z"></path>
  <path fill="#004399" d="M57.5 67a3 3 0 0 1 3-3h8a3 3 0 0 1 3 3v20a3 3 0 0 1-3 3h-8a3 3 0 0 1-3-3V67ZM75.5 56a3 3 0 0 1 3-3h8a3 3 0 0 1 3 3v31a3 3 0 0 1-3 3h-8a3 3 0 0 1-3-3V56Z"></path>
</svg>
